<?xml version="1.0" standalone="no"?>
<!DOCTYPE svg PUBLIC "-//W3C//DTD SVG 20010904//EN"
 "http://www.w3.org/TR/2001/REC-SVG-20010904/DTD/svg10.dtd">
<svg version="1.0" xmlns="http://www.w3.org/2000/svg"
 width="1080.000000pt" height="1080.000000pt" viewBox="0 0 1080.000000 1080.000000"
 preserveAspectRatio="xMidYMid meet">

<g transform="translate(0.000000,1080.000000) scale(0.100000,-0.100000)"
fill="#000000" stroke="none">
<path d="M0 10360 l0 -439 73 1 c39 1 97 -4 127 -11 30 -7 87 -19 125 -27 119
-25 235 -62 235 -75 0 -4 18 -9 39 -13 21 -3 41 -13 45 -21 3 -9 18 -15 41
-15 19 0 35 -4 35 -9 0 -4 29 -11 64 -14 35 -3 89 -17 120 -31 54 -24 56 -24
56 -5 0 24 6 24 72 1 29 -11 87 -27 128 -37 41 -10 87 -24 102 -31 15 -8 43
-14 63 -14 19 0 35 -3 35 -7 0 -9 49 -33 67 -33 7 0 13 -4 13 -9 0 -4 20 -11
45 -14 44 -6 70 -18 183 -86 29 -17 60 -31 68 -31 9 0 28 -8 42 -19 34 -24
111 -60 137 -64 11 -2 30 -8 42 -15 27 -15 122 -16 160 -1 15 6 37 13 47 15
25 5 75 64 76 90 0 11 9 39 20 62 11 23 25 53 30 67 5 14 14 25 20 25 5 0 10
9 10 21 0 21 80 109 99 109 6 0 14 12 17 26 4 17 19 31 41 41 20 8 38 23 40
34 5 16 12 20 31 16 27 -5 92 20 92 35 0 5 6 8 13 7 25 -3 37 1 56 20 32 32
130 91 151 91 11 0 20 5 20 10 0 6 8 10 19 10 10 0 24 7 31 15 7 8 18 15 26
15 7 0 19 6 26 14 8 7 24 17 36 20 12 4 22 12 22 17 0 5 6 9 14 9 21 0 38 27
31 49 -8 26 -90 82 -109 75 -7 -3 -29 1 -48 9 -19 8 -55 18 -79 22 -24 4 -60
13 -79 20 -19 7 -64 18 -99 24 -35 7 -73 18 -85 26 -11 7 -56 18 -98 23 -42 6
-91 17 -109 26 -18 9 -39 16 -48 16 -9 0 -34 9 -56 20 -22 11 -53 20 -70 21
-16 0 -52 9 -80 19 -43 16 -46 19 -21 19 28 1 28 2 24 51 -4 39 -1 54 13 69
23 24 24 41 4 41 -8 0 -15 3 -15 8 0 13 -57 72 -69 72 -7 0 -11 8 -9 17 2 10
-7 22 -20 29 -13 6 -29 17 -35 23 -8 8 -287 11 -1004 11 l-993 0 0 -440z"/>
<path d="M3247 10628 c2 -95 9 -185 15 -200 6 -17 11 -201 13 -490 3 -569 3
-580 14 -574 5 3 12 -33 16 -80 8 -95 -2 -244 -16 -244 -15 0 -10 -20 11 -42
11 -12 20 -25 20 -30 0 -4 -9 -8 -20 -8 -11 0 -20 -4 -20 -8 0 -5 -21 -24 -46
-42 -46 -33 -50 -34 -188 -42 -194 -13 -261 -29 -303 -73 -18 -19 -37 -35 -43
-35 -12 0 -12 26 -10 -310 1 -259 3 -289 20 -324 11 -22 17 -43 14 -47 -2 -4
11 -11 30 -15 44 -8 87 10 112 47 19 28 19 28 39 9 27 -25 30 -25 55 3 20 20
22 21 31 5 6 -10 18 -18 28 -18 10 0 26 -9 36 -20 10 -11 23 -20 30 -20 7 0
20 9 30 20 21 23 41 26 48 6 5 -12 13 -12 57 2 42 13 53 14 60 3 5 -10 16 -11
36 -6 16 5 76 8 134 7 91 -1 107 2 123 19 10 10 27 19 37 19 21 0 60 -33 60
-50 0 -5 29 -8 68 -6 68 4 68 4 80 -27 11 -30 12 -30 31 -13 22 20 51 15 51
-8 0 -21 43 -30 71 -16 12 7 34 27 48 44 51 61 70 76 99 76 16 0 32 3 36 7 4
4 51 8 104 9 53 1 125 3 159 6 37 3 64 1 66 -5 2 -6 18 -7 42 -2 31 7 35 10
17 13 -13 2 -21 9 -19 15 7 23 35 18 68 -12 35 -33 74 -40 111 -20 25 13 34 6
68 -58 28 -52 50 -66 50 -34 0 12 6 36 14 54 l13 33 82 -2 c71 -1 84 1 94 17
12 19 37 26 37 10 0 -14 90 -52 114 -49 11 2 28 -5 36 -15 15 -18 16 -18 48 0
27 15 35 16 53 5 18 -12 24 -11 36 1 14 13 19 13 50 0 20 -8 41 -12 49 -9 7 3
17 -2 22 -11 8 -14 12 -13 30 5 12 12 38 24 59 28 21 3 58 17 83 30 25 13 64
28 86 34 23 5 54 20 69 32 18 14 40 21 64 20 29 -1 46 5 71 28 20 18 45 30 62
30 20 0 42 14 78 50 28 28 54 50 58 50 4 0 45 36 92 81 47 44 117 104 155 133
39 30 98 80 132 112 34 33 94 84 133 114 73 57 136 125 123 133 -5 2 -33 10
-63 18 -30 7 -57 16 -60 20 -3 4 -14 8 -25 10 -11 3 -28 21 -38 43 -17 36 -18
53 -8 244 6 113 8 208 6 212 -2 4 1 48 8 99 l11 92 -29 24 c-17 13 -40 24 -53
25 -13 0 -37 7 -54 16 -17 9 -78 25 -137 36 -58 11 -126 23 -151 28 -25 5 -58
13 -75 18 -16 6 -70 22 -120 37 -49 16 -135 42 -190 60 -102 32 -255 80 -311
96 -17 5 -38 9 -47 9 -9 0 -17 5 -17 10 0 6 -7 10 -15 10 -8 0 -23 4 -33 9 -9
5 -46 17 -82 26 -36 9 -81 23 -100 31 -19 8 -72 23 -117 34 -45 11 -90 23 -99
27 -15 5 -16 1 -12 -35 4 -26 1 -47 -7 -58 -11 -16 -13 -16 -20 7 -15 54 -38
108 -44 106 -3 -1 -33 8 -66 20 -33 11 -85 28 -115 36 -127 36 -140 41 -140
49 0 4 -8 8 -17 8 -22 0 -136 36 -181 58 -18 9 -41 16 -50 17 -9 1 -33 6 -52
12 -19 6 -66 17 -105 23 -38 7 -79 17 -90 23 -23 12 -22 12 -90 28 -27 6 -52
15 -55 18 -8 11 -143 27 -194 23 -37 -3 -46 -8 -46 -23 0 -11 -11 -24 -26 -31
-19 -9 -24 -17 -20 -32 3 -12 6 -34 6 -49 0 -20 6 -30 20 -34 22 -6 28 -48 8
-56 -20 -7 80 -47 119 -47 41 0 144 -25 190 -46 18 -8 83 -21 145 -30 62 -9
120 -21 128 -29 19 -16 117 -48 128 -41 4 2 41 -5 82 -16 41 -11 87 -21 102
-23 15 -1 34 -8 43 -15 8 -7 44 -15 78 -17 34 -2 82 -11 106 -19 25 -8 61 -14
81 -14 20 0 41 -5 47 -11 8 -8 15 -4 25 15 l14 27 14 -26 c14 -26 22 -30 103
-40 26 -3 47 -10 47 -16 0 -5 16 -9 35 -9 43 0 137 -19 149 -31 6 -5 34 -9 63
-9 30 0 81 -9 114 -20 34 -12 103 -27 155 -34 51 -7 99 -18 107 -24 7 -6 42
-16 78 -21 98 -15 202 -40 208 -49 3 -5 32 -19 64 -32 32 -14 63 -32 68 -42 5
-10 16 -18 24 -18 8 0 15 -6 15 -13 0 -8 9 -22 20 -32 19 -17 20 -31 20 -279
-1 -255 -1 -262 -23 -286 -50 -57 -82 -68 -242 -79 -245 -18 -514 -22 -556 -9
-31 9 -47 8 -81 -5 -24 -8 -63 -15 -87 -16 -28 -1 -48 -7 -55 -17 -11 -14 -13
-14 -25 -1 -10 13 -39 15 -189 11 -97 -3 -202 -9 -232 -14 -30 -4 -107 -9
-170 -9 -63 -1 -218 -6 -345 -12 -126 -6 -275 -12 -330 -15 -55 -2 -159 -6
-232 -10 -107 -5 -142 -3 -190 11 -32 9 -64 22 -70 27 -8 7 -13 36 -13 78 0
110 -11 190 -26 190 -19 0 -18 60 1 96 22 42 22 326 0 344 -8 7 -15 19 -15 26
0 8 7 14 15 14 11 0 15 11 15 40 0 29 -4 40 -15 40 -19 0 -19 17 0 158 8 66
11 121 6 134 -4 13 -6 29 -4 36 3 7 0 26 -7 41 -9 23 -8 38 5 77 13 40 16 90
13 321 l-2 273 -72 0 -72 0 5 -172z"/>
<path d="M7597 10781 c17 -11 34 -29 38 -40 3 -12 13 -21 21 -21 8 0 17 -7 20
-15 4 -8 10 -13 15 -10 4 3 16 -7 26 -22 10 -15 21 -30 24 -33 4 -3 6 -91 5
-195 -1 -105 1 -253 5 -330 5 -77 9 -219 10 -315 1 -108 6 -180 13 -189 8 -11
8 -15 -1 -18 -7 -3 -13 -9 -13 -15 0 -10 55 -8 343 13 81 6 155 8 165 4 9 -4
53 -11 97 -15 141 -15 181 -33 209 -93 11 -23 28 -51 38 -63 11 -12 18 -35 17
-60 0 -21 0 -70 0 -109 1 -74 -15 -122 -51 -144 -17 -10 -18 -8 -17 31 2 36
-7 72 -38 153 -19 49 -81 125 -103 125 -10 0 -20 5 -22 11 -2 6 -20 11 -41 12
-20 0 -37 4 -37 8 0 7 -44 14 -167 25 -47 4 -73 3 -73 -3 0 -6 -15 -14 -32
-18 -18 -4 -27 -9 -20 -12 6 -2 12 -21 12 -41 0 -52 -27 -62 -166 -62 -89 0
-116 -3 -128 -16 -9 -8 -16 -20 -16 -26 0 -6 -11 -8 -25 -6 -14 3 -25 1 -25
-3 0 -5 -9 -9 -20 -9 -11 0 -20 -6 -20 -14 0 -8 -9 -18 -20 -21 -11 -3 -20
-11 -20 -16 0 -5 -7 -9 -15 -9 -16 0 -17 -5 -6 -33 8 -21 86 -30 244 -29 87 1
97 0 97 -17 0 -12 13 -22 43 -30 74 -23 117 -44 117 -58 0 -7 9 -13 20 -13 28
0 25 -25 -5 -38 -32 -15 -95 -16 -95 -2 0 6 -37 10 -92 9 -141 -1 -207 -9
-225 -27 -14 -14 -14 -17 7 -34 13 -10 38 -18 61 -18 21 0 71 -11 111 -24 40
-13 88 -27 106 -31 17 -4 32 -10 32 -15 0 -4 27 -10 61 -12 57 -4 66 -9 84
-43 3 -6 7 -5 11 3 7 14 84 17 84 2 0 -5 -6 -10 -14 -10 -9 0 -15 -17 -19 -52
-5 -45 -2 -55 14 -67 26 -18 25 -67 -1 -81 -11 -6 -20 -19 -20 -30 0 -18 -40
-70 -54 -70 -4 0 -14 -7 -23 -15 -13 -14 -13 -19 5 -46 l19 -31 -24 -44 c-16
-28 -32 -44 -44 -44 -12 0 -26 -15 -39 -40 -11 -22 -25 -40 -30 -40 -19 0 -10
-39 10 -45 13 -4 21 -16 22 -33 5 -83 3 -98 -18 -119 -27 -27 -38 -54 -20 -47
9 4 16 -6 20 -30 10 -51 86 -105 86 -60 0 9 7 14 17 12 14 -3 17 -12 14 -53
-1 -28 -10 -61 -19 -75 -10 -16 -16 -51 -18 -99 -1 -59 -5 -76 -19 -84 -40
-22 -66 -53 -76 -91 -5 -23 -14 -50 -18 -61 -27 -64 -31 -80 -31 -123 0 -26
-7 -59 -15 -75 -24 -47 -34 -128 -25 -202 7 -55 6 -75 -6 -92 -19 -30 -18 -47
6 -68 11 -10 20 -29 20 -42 0 -13 7 -35 16 -49 14 -20 15 -30 5 -50 -23 -51
-3 -164 30 -164 21 0 19 -30 -4 -67 -13 -21 -27 -59 -30 -85 -6 -43 -4 -50 25
-82 19 -22 41 -36 55 -36 19 0 22 -4 17 -28 -4 -20 0 -32 12 -43 9 -8 19 -13
21 -11 1 1 12 2 23 2 15 0 20 -7 20 -28 0 -36 16 -52 52 -52 21 0 31 -6 38
-24 5 -15 23 -29 45 -37 37 -14 38 -17 24 -68 -2 -8 6 -19 17 -26 39 -20 54
-37 54 -60 0 -16 9 -27 29 -36 24 -11 27 -16 18 -31 -9 -13 -8 -21 1 -30 6 -6
12 -20 12 -31 0 -10 11 -30 25 -45 14 -15 40 -43 58 -62 17 -20 31 -42 29 -51
-1 -8 9 -28 23 -45 14 -16 25 -34 25 -41 0 -7 20 -35 45 -63 l45 -50 -2 -85
c-2 -74 1 -87 18 -100 10 -8 22 -15 25 -15 4 0 10 -24 13 -52 8 -60 26 -94 56
-103 18 -6 18 -8 5 -29 -15 -23 -11 -56 6 -56 12 0 11 -37 -1 -45 -16 -10 -11
-37 12 -62 18 -19 21 -34 20 -88 -1 -53 -8 -80 -37 -140 -19 -41 -39 -76 -44
-80 -5 -3 -12 -24 -16 -48 -4 -23 -22 -67 -41 -99 -37 -61 -40 -74 -23 -112
10 -20 9 -30 -5 -50 -9 -14 -16 -35 -16 -46 0 -12 -4 -29 -9 -38 -4 -9 -11
-32 -14 -50 -6 -28 -3 -34 18 -44 30 -13 28 -32 -3 -36 -31 -5 -27 -28 9 -61
l30 -28 -18 -39 c-10 -21 -22 -42 -27 -45 -5 -4 -6 -15 -2 -24 3 -9 2 -25 -4
-34 -7 -14 -4 -24 15 -41 20 -19 25 -33 25 -76 0 -33 5 -56 15 -64 12 -10 11
-16 -7 -41 -12 -15 -24 -27 -27 -25 -3 2 -7 -10 -9 -27 -1 -18 -3 -46 -5 -63
-1 -17 -7 -37 -14 -45 -6 -8 -13 -25 -15 -39 -1 -13 -13 -30 -26 -36 -34 -17
-36 -22 -18 -40 13 -12 14 -19 5 -30 -9 -11 -8 -19 6 -34 17 -19 17 -20 -1
-20 -10 0 -25 -4 -33 -9 -12 -7 -10 -14 8 -36 21 -28 28 -65 12 -65 -15 0 -42
-31 -36 -40 7 -11 64 -40 79 -40 6 0 34 -11 61 -24 45 -22 47 -25 22 -25 -15
-1 -44 6 -64 14 -40 17 -149 20 -158 5 -3 -5 1 -10 9 -10 23 0 20 -17 -4 -23
-11 -3 -20 -12 -20 -20 0 -24 75 -130 119 -167 25 -21 41 -43 41 -56 0 -64 43
-110 123 -129 16 -4 27 -14 27 -24 0 -17 39 -61 54 -61 4 0 20 -8 34 -18 15
-10 45 -24 67 -31 60 -21 262 -120 245 -121 -8 0 -28 7 -45 16 -16 9 -66 29
-109 45 -43 16 -92 37 -107 46 -23 14 -31 15 -41 5 -9 -9 -9 -15 0 -24 7 -7
12 -20 12 -29 0 -20 47 -62 102 -90 33 -17 38 -22 27 -35 -11 -13 -7 -21 25
-50 20 -19 40 -34 44 -34 10 0 49 -61 57 -90 4 -14 16 -33 25 -42 10 -9 29
-36 41 -58 22 -39 75 -72 179 -114 8 -3 22 -10 30 -15 8 -6 27 -12 43 -16 39
-8 34 -25 -8 -25 -44 0 -45 -17 -2 -35 l32 -13 -27 -11 c-14 -5 -29 -14 -32
-19 -9 -15 14 -69 32 -76 56 -21 70 -36 67 -71 -4 -45 28 -69 103 -79 57 -7
102 -24 102 -38 0 -4 -14 -17 -31 -27 l-32 -20 39 -36 c21 -21 55 -46 74 -56
19 -11 49 -28 66 -38 17 -10 49 -22 72 -26 57 -9 71 -29 38 -50 -50 -33 -26
-79 59 -114 17 -6 59 -39 94 -71 35 -33 67 -60 71 -60 5 0 10 -7 13 -15 7 -15
114 -74 161 -88 16 -5 46 -23 67 -40 20 -18 66 -43 101 -56 34 -13 65 -27 68
-30 13 -15 70 -40 119 -51 30 -7 66 -19 80 -26 14 -8 29 -14 34 -14 4 0 7
2268 7 5040 l0 5040 -1617 0 c-1602 0 -1618 0 -1586 -19z m103 -1585 c0 -3 -4
-8 -10 -11 -5 -3 -10 -1 -10 4 0 6 5 11 10 11 6 0 10 -2 10 -4z m838 -392 c-5
-77 -29 -129 -59 -129 -8 0 -18 -10 -24 -22 -10 -24 -22 -28 -43 -14 -11 6
-10 16 2 52 9 24 16 57 16 72 0 29 20 57 39 57 6 0 11 7 11 16 0 8 5 12 11 9
6 -4 13 2 16 14 3 12 12 21 20 21 13 0 15 -13 11 -76z m-161 -224 c6 -23 23
-27 23 -6 0 12 20 26 36 26 3 0 2 -16 -2 -37 -7 -35 -54 -115 -76 -129 -5 -3
-16 -20 -24 -38 -8 -18 -13 -24 -14 -13 0 9 -4 17 -10 17 -5 0 -10 18 -10 40
0 22 5 40 10 40 6 0 10 18 10 40 0 22 4 40 9 40 5 0 11 9 14 20 3 11 10 20 17
20 7 0 14 -9 17 -20z m-87 -299 c0 -6 -4 -13 -10 -16 -5 -3 -10 1 -10 9 0 9 5
16 10 16 6 0 10 -4 10 -9z m761 -63 c115 -38 169 -84 176 -152 9 -79 -53 -163
-160 -218 -84 -42 -158 -53 -357 -53 -165 0 -177 1 -207 23 -17 12 -35 22 -40
22 -19 0 -83 67 -98 102 -31 77 -13 146 53 206 20 17 39 32 42 33 27 4 47 9
65 17 61 28 148 40 301 41 139 1 169 -2 225 -21z m-865 -138 c8 0 12 -5 9 -10
-9 -15 -35 8 -34 29 1 13 2 13 6 -1 2 -10 11 -18 19 -18z m2134 -1110 c0 -5
-4 -10 -10 -10 -5 0 -10 5 -10 10 0 6 5 10 10 10 6 0 10 -4 10 -10z m51 -1361
c27 -14 24 -61 -6 -93 -14 -15 -25 -31 -25 -37 0 -18 -58 -9 -94 16 -20 14
-41 25 -45 25 -33 0 16 85 59 103 19 8 86 0 111 -14z m-1476 -2647 c-3 -3 -11
0 -18 7 -9 10 -8 11 6 5 10 -3 15 -9 12 -12z m-85 -352 c18 -12 2 -12 -25 0
-13 6 -15 9 -5 9 8 0 22 -4 30 -9z m405 -250 c3 -5 2 -10 -4 -10 -5 0 -13 5
-16 10 -3 6 -2 10 4 10 5 0 13 -4 16 -10z"/>
<path d="M2160 10570 c0 -5 7 -10 16 -10 8 0 12 5 9 10 -3 6 -10 10 -16 10 -5
0 -9 -4 -9 -10z"/>
<path d="M2233 10565 c-7 -8 -13 -30 -13 -50 l0 -35 50 0 50 0 0 50 0 50 -37
0 c-21 -1 -44 -7 -50 -15z"/>
<path d="M2340 10520 c0 -29 4 -40 15 -40 11 0 15 11 15 40 0 29 -4 40 -15 40
-11 0 -15 -11 -15 -40z"/>
<path d="M7719 8685 c-13 -5 -35 -18 -48 -27 -13 -9 -28 -15 -33 -12 -19 12
-242 14 -318 4 -74 -10 -120 -30 -120 -52 0 -5 27 -7 59 -7 40 1 66 -4 82 -15
13 -9 18 -16 11 -16 -19 0 -14 -28 6 -33 17 -5 42 -4 188 9 104 9 134 2 134
-31 0 -22 5 -25 38 -26 77 -3 90 -5 106 -18 14 -11 16 -11 16 3 0 12 10 16 40
16 29 0 40 4 40 15 0 9 7 26 15 39 15 22 14 24 -7 30 -13 3 -67 3 -120 -1 -54
-3 -98 -3 -98 0 0 16 62 36 133 42 87 8 100 24 49 62 -32 24 -135 35 -173 18z"/>
<path d="M8000 8549 c0 -5 5 -7 10 -4 6 3 10 8 10 11 0 2 -4 4 -10 4 -5 0 -10
-5 -10 -11z"/>
<path d="M7360 8381 c0 -7 -102 -28 -180 -36 -48 -4 -111 -26 -105 -35 8 -13
125 -13 125 0 0 22 21 8 39 -27 24 -49 12 -62 -67 -71 l-57 -6 50 -7 c36 -4
55 -2 66 8 14 12 29 11 105 -2 49 -9 99 -18 112 -19 13 -2 28 -8 35 -15 6 -6
29 -11 52 -11 50 0 65 20 66 93 2 80 -21 102 -107 105 -37 2 -79 9 -95 17 -33
17 -39 18 -39 6z"/>
<path d="M7730 8171 c0 -13 25 -20 39 -11 10 5 8 9 -4 14 -23 8 -35 8 -35 -3z"/>
<path d="M0 7663 c0 -34 3 -38 25 -38 23 0 25 3 20 25 -15 58 -45 66 -45 13z"/>
<path d="M80 7629 c0 -5 5 -7 10 -4 6 3 10 8 10 11 0 2 -4 4 -10 4 -5 0 -10
-5 -10 -11z"/>
<path d="M7138 7580 c-32 -19 -27 -30 13 -30 34 0 76 18 83 36 7 19 -63 15
-96 -6z"/>
<path d="M7360 7518 c0 -4 -11 -8 -25 -8 -25 0 -35 -15 -14 -22 21 -7 92 7 96
18 2 7 -10 14 -27 16 -16 3 -30 1 -30 -4z"/>
<path d="M6305 6470 c27 -12 87 -12 105 0 10 7 -6 10 -55 9 -48 0 -64 -3 -50
-9z"/>
<path d="M649 6441 c-26 -9 -53 -22 -60 -28 -8 -6 -23 -12 -34 -14 -11 -2 -24
-14 -30 -26 -5 -12 -26 -30 -46 -40 -20 -9 -41 -29 -47 -43 -6 -14 -28 -42
-48 -62 -20 -21 -34 -43 -31 -50 2 -7 -11 -27 -29 -44 -23 -21 -37 -46 -44
-80 -7 -27 -15 -61 -19 -75 -11 -36 8 -59 51 -59 19 0 39 5 46 12 9 9 15 9 23
1 8 -8 6 -24 -6 -59 -27 -80 -10 -215 42 -334 22 -50 113 -156 146 -170 15 -7
27 -16 27 -20 0 -4 29 -22 65 -40 36 -18 65 -36 65 -40 0 -17 113 -71 155 -75
6 0 15 -3 20 -6 20 -12 155 -40 284 -60 91 -14 269 -5 436 22 166 27 176 29
210 43 69 30 156 49 243 54 72 4 92 2 92 -9 0 -8 5 -6 14 6 13 18 14 18 25 -3
6 -12 18 -22 26 -22 8 0 15 -5 15 -12 0 -8 3 -9 10 -2 7 7 5 21 -6 43 -10 21
-13 36 -6 44 5 7 12 24 16 40 4 16 13 27 24 27 16 1 16 1 0 11 -32 18 -20 45
33 80 43 27 48 34 34 42 -12 6 -20 5 -26 -4 -7 -12 -9 -11 -9 1 -1 8 -3 37 -5
63 -4 43 -2 49 20 59 30 13 41 43 25 63 -13 16 -1 49 57 160 12 23 42 109 50
143 8 34 -26 28 -79 -13 -64 -50 -118 -64 -188 -49 -136 30 -582 183 -735 254
-79 37 -266 128 -285 140 -43 26 -190 90 -207 90 -10 0 -24 5 -30 11 -14 14
-168 49 -208 47 -16 0 -51 -8 -76 -17z m823 -427 c24 -9 50 -23 58 -30 12 -12
12 -14 -6 -14 -29 0 -116 30 -134 46 -12 12 -11 14 13 14 14 0 46 -7 69 -16z
m-1012 -321 c0 -7 -4 -13 -10 -13 -5 0 -10 12 -10 28 0 21 2 24 10 12 5 -8 10
-21 10 -27z m50 -59 c0 -8 -7 -14 -15 -14 -8 0 -15 9 -15 20 0 13 5 18 15 14
8 -4 15 -12 15 -20z m210 -294 c0 -5 -2 -10 -4 -10 -3 0 -8 5 -11 10 -3 6 -1
10 4 10 6 0 11 -4 11 -10z m72 -30 c8 -12 24 -20 38 -20 14 0 31 -5 38 -12 8
-8 12 -8 12 -1 0 14 52 3 97 -20 18 -10 41 -17 52 -17 11 0 32 -5 48 -11 25
-9 26 -11 10 -21 -20 -11 -152 16 -163 33 -3 5 -14 9 -25 9 -26 0 -149 58
-149 70 0 18 29 11 42 -10z m488 -105 c38 -4 40 -4 40 -14 0 -16 -61 -21 -135
-10 -59 9 -72 14 -68 26 5 13 18 14 72 8 36 -4 77 -9 91 -10z m180 -15 c-14
-4 -38 -8 -55 -8 -29 1 -29 1 5 8 50 11 83 11 50 0z"/>
<path d="M5775 6398 c-156 -39 -225 -47 -369 -41 -124 6 -126 6 -126 -16 0
-15 -6 -21 -21 -21 -11 0 -29 -10 -40 -22 -10 -13 -18 -17 -19 -10 0 15 -80
17 -80 2 0 -10 -9 -22 -56 -74 -13 -15 -24 -33 -24 -41 0 -8 -5 -15 -10 -15
-6 0 -24 -15 -40 -32 -22 -24 -29 -43 -30 -71 0 -22 -10 -70 -21 -109 -21 -69
-21 -69 -2 -91 11 -12 30 -36 42 -54 l22 -32 -23 -41 c-20 -35 -21 -42 -8 -51
11 -8 12 -12 3 -16 -15 -6 -17 -43 -3 -43 6 0 10 -4 10 -10 0 -5 -10 -10 -22
-10 -20 0 -20 -1 -5 -18 18 -20 23 -47 7 -37 -15 9 -12 -8 4 -31 8 -10 12 -30
9 -45 -3 -16 1 -30 11 -38 23 -19 20 -36 -10 -50 -25 -11 -26 -13 -8 -25 15
-11 16 -17 6 -28 -6 -8 -9 -18 -5 -21 3 -4 0 -13 -6 -21 -16 -19 -6 -36 22
-36 22 -1 22 -1 2 -12 -19 -11 -35 -28 -35 -38 0 -7 90 -4 97 4 14 13 53 5 65
-14 7 -11 18 -20 24 -20 6 0 11 -12 11 -27 1 -16 2 -37 4 -48 3 -15 -1 -19
-13 -17 -29 5 -23 -36 7 -44 13 -3 29 -12 36 -20 6 -8 21 -14 33 -14 12 0 27
-5 34 -12 9 -9 13 -7 18 7 5 12 3 20 -5 23 -28 9 -52 44 -49 70 2 17 -4 34
-15 44 -18 16 -18 17 0 27 15 7 22 5 31 -10 15 -23 52 -26 52 -3 0 26 -31 43
-67 37 -35 -6 -39 -2 -23 27 6 11 17 17 25 14 8 -4 15 -1 15 5 0 6 -7 11 -15
11 -8 0 -15 5 -15 10 0 6 10 10 23 10 13 0 29 6 36 13 11 10 14 9 18 -1 4 -10
8 -10 19 -1 15 12 14 12 234 -47 178 -47 475 -64 605 -35 22 5 74 15 115 21
41 6 91 17 110 23 19 6 37 12 40 12 65 17 101 29 106 36 3 5 15 9 28 9 12 0
32 10 44 23 26 28 46 45 97 81 58 42 156 146 171 181 7 17 21 39 32 49 11 10
24 36 27 59 9 50 47 154 58 156 4 0 12 1 17 1 6 0 10 11 10 25 0 18 7 26 25
31 14 3 25 12 25 19 0 8 8 15 17 17 14 3 18 15 19 63 0 33 -5 72 -12 86 -15
30 -110 129 -123 129 -5 0 -11 10 -13 22 -6 43 -204 122 -423 168 -81 17 -135
21 -275 21 -96 0 -213 0 -260 2 -65 2 -110 -4 -195 -25z m849 -234 c4 -9 4
-19 1 -22 -6 -6 -35 18 -35 29 0 16 28 10 34 -7z m-727 -40 c-3 -3 -12 -4 -19
-1 -8 3 -5 6 6 6 11 1 17 -2 13 -5z m43 -39 c6 -8 10 -22 8 -32 -3 -15 -13
-18 -58 -18 -45 0 -55 3 -58 18 -6 28 17 47 58 47 21 0 43 -7 50 -15z m620
-635 c0 -5 -5 -10 -11 -10 -5 0 -7 5 -4 10 3 6 8 10 11 10 2 0 4 -4 4 -10z
m-51 -86 c-23 -24 -136 -84 -159 -84 -6 0 -39 -9 -73 -19 -105 -33 -285 -53
-397 -45 -55 3 -100 10 -100 14 0 4 12 15 26 24 30 20 69 18 69 -4 0 -20 34
-24 71 -9 16 7 54 14 85 15 32 2 77 10 100 18 24 7 91 28 149 47 58 18 110 38
115 45 11 12 37 17 104 21 l34 3 -24 -26z m-764 -104 c-3 -5 -10 -10 -16 -10
-5 0 -9 5 -9 10 0 6 7 10 16 10 8 0 12 -4 9 -10z"/>
<path d="M4910 5244 c0 -8 5 -12 10 -9 6 3 10 10 10 16 0 5 -4 9 -10 9 -5 0
-10 -7 -10 -16z"/>
<path d="M2112 5135 c-15 -33 -15 -35 1 -35 11 0 37 39 37 55 0 16 -29 1 -38
-20z"/>
<path d="M4925 5119 c-4 -6 -4 -13 -1 -16 8 -8 36 5 36 17 0 13 -27 13 -35 -1z"/>
<path d="M5022 5101 c-11 -7 -11 -9 2 -14 10 -4 16 -1 16 8 0 17 -1 17 -18 6z"/>
<path d="M1978 5073 c-21 -5 -23 -14 -6 -31 20 -20 38 -14 38 13 0 25 -1 26
-32 18z"/>
<path d="M2070 4990 c0 -5 7 -10 16 -10 8 0 12 5 9 10 -3 6 -10 10 -16 10 -5
0 -9 -4 -9 -10z"/>
<path d="M2200 4935 c0 -19 39 -40 52 -27 6 6 2 15 -13 26 -29 20 -39 20 -39
1z"/>
<path d="M7067 4199 c-75 -5 -147 -14 -160 -21 -12 -6 -40 -15 -62 -19 -83
-15 -231 -50 -265 -63 -33 -12 -138 -45 -220 -68 -47 -13 -120 -49 -120 -60 0
-4 -6 -8 -14 -8 -22 0 -24 -42 -3 -72 14 -21 26 -28 52 -28 19 0 37 -5 40 -10
4 -6 85 -10 216 -10 136 1 215 -3 224 -10 7 -5 36 -17 65 -26 97 -29 134 -101
105 -202 -17 -57 -103 -234 -117 -240 -5 -2 -8 -12 -8 -23 0 -10 -4 -19 -9
-19 -5 0 -19 -20 -31 -45 -12 -25 -26 -45 -31 -45 -5 0 -9 -5 -9 -11 0 -29
-156 -194 -208 -219 -15 -8 -34 -19 -42 -25 -51 -37 -167 -68 -315 -84 -38 -4
-59 -8 -47 -9 39 -3 19 -27 -24 -29 -21 -1 -61 -5 -88 -9 -36 -5 -50 -3 -57 7
-7 11 -11 11 -17 1 -7 -9 -18 -9 -56 4 -31 11 -61 14 -89 10 -44 -7 -104 -35
-77 -36 9 0 23 -9 32 -19 14 -17 15 -20 1 -25 -24 -10 -224 -6 -269 4 -23 5
-63 11 -88 13 -40 4 -46 2 -46 -15 0 -18 -4 -19 -52 -12 -29 4 -66 7 -81 6
-15 -1 -25 3 -22 7 7 13 -43 20 -74 11 -26 -8 -24 -11 14 -15 12 -1 30 -7 42
-14 12 -6 37 -11 55 -12 18 0 42 -4 53 -8 20 -8 20 -8 0 -15 -39 -12 -135 -11
-143 1 -4 6 -38 14 -75 16 -38 2 -73 9 -80 16 -6 6 -32 11 -57 11 -26 0 -61 7
-78 16 -18 8 -42 14 -54 12 -20 -3 -18 -6 15 -20 45 -21 53 -55 10 -43 -16 4
-44 11 -63 15 -19 4 -48 13 -64 19 -17 7 -47 9 -71 5 -30 -4 -52 -1 -75 11
-18 9 -53 19 -78 21 -25 3 -60 12 -77 20 -16 9 -68 19 -115 24 -87 8 -133 20
-145 39 -3 6 -17 11 -31 11 -27 0 -60 14 -84 36 -8 8 -26 22 -39 32 -30 23
-20 46 18 37 26 -5 26 -5 23 40 -3 36 -1 45 12 45 12 0 16 8 14 31 -2 24 4 36
25 51 15 11 27 23 27 28 0 12 57 70 69 70 6 0 11 6 11 13 0 14 69 63 84 59 22
-7 56 9 56 27 0 25 42 58 91 71 38 11 54 30 24 30 -8 0 -15 7 -15 15 0 10 14
17 40 21 22 4 40 10 40 14 0 4 22 22 49 39 54 35 68 56 50 77 -9 11 -4 17 27
29 64 25 69 30 75 74 3 22 13 47 22 54 9 6 17 19 19 27 2 8 13 22 24 32 27 22
40 84 22 105 -15 18 -98 13 -166 -11 -23 -8 -42 -11 -42 -6 0 6 -3 9 -7 8 -22
-6 -73 13 -73 27 0 13 -4 14 -20 5 -21 -11 -24 -8 -21 23 2 11 -5 17 -18 17
-12 0 -21 7 -21 15 0 11 -7 14 -24 9 -14 -3 -49 -1 -78 5 -36 8 -54 9 -56 1
-5 -15 -42 -12 -48 5 -8 19 -34 20 -34 0 0 -16 -46 -65 -62 -65 -5 0 -8 -6 -5
-14 9 -24 -51 -46 -91 -32 -24 8 -56 -9 -46 -25 3 -5 -4 -9 -15 -9 -13 0 -21
-7 -21 -16 0 -15 -16 -16 -156 -12 -91 3 -159 10 -163 16 -3 6 -34 13 -69 17
-52 5 -62 4 -62 -9 0 -9 -7 -16 -15 -16 -8 0 -15 -4 -15 -10 0 -5 -18 -10 -39
-10 -22 0 -42 -5 -44 -12 -4 -10 -6 -10 -6 0 -2 20 -39 14 -55 -10 -14 -20
-16 -20 -16 -4 0 17 -1 17 -25 2 -17 -12 -47 -17 -93 -16 -37 0 -100 -1 -140
-1 -81 -1 -137 18 -147 52 -6 18 -12 20 -41 14 -27 -5 -34 -3 -34 10 0 17 -25
21 -35 5 -3 -6 -15 -10 -26 -10 -22 0 -26 37 -9 71 7 13 7 19 0 19 -5 0 -10
-4 -10 -10 0 -5 -7 -10 -15 -10 -8 0 -15 4 -15 9 0 5 -14 17 -32 25 -29 15
-32 15 -50 -4 -10 -10 -17 -25 -16 -31 2 -7 -11 -22 -29 -33 -17 -12 -33 -28
-36 -37 -8 -29 -53 -52 -76 -40 -24 13 -108 15 -115 2 -3 -5 28 -44 69 -87 41
-43 75 -84 75 -91 0 -7 6 -13 14 -13 18 0 29 -29 16 -45 -11 -14 44 -95 65
-95 22 0 125 -51 125 -62 0 -20 34 -37 73 -38 20 0 37 -4 37 -9 0 -5 11 -23
25 -39 13 -16 22 -31 19 -34 -2 -3 6 -12 19 -21 13 -9 27 -29 30 -45 4 -19 14
-31 27 -35 12 -3 24 -15 27 -26 3 -12 9 -21 13 -21 5 0 11 -14 15 -30 6 -27
39 -57 58 -52 4 1 7 -5 7 -14 0 -8 -4 -13 -9 -10 -5 3 -15 -1 -22 -10 -16 -19
2 -34 43 -34 28 0 46 -16 26 -22 -19 -7 1 -28 28 -28 25 0 29 -14 18 -56 -6
-22 -40 -40 -123 -68 -38 -13 -50 -13 -85 -1 -25 9 -42 11 -44 5 -2 -6 -8 -10
-12 -10 -5 0 -29 -14 -52 -30 -24 -17 -52 -37 -63 -45 -11 -8 -47 -17 -80 -21
-33 -3 -70 -13 -82 -20 -12 -8 -43 -21 -69 -30 -47 -16 -48 -16 -65 8 -10 12
-19 31 -19 41 0 10 -8 17 -20 17 -13 0 -20 -7 -20 -19 0 -16 -11 -22 -57 -31
-32 -7 -76 -18 -98 -25 -24 -8 -42 -9 -46 -4 -8 13 -30 14 -111 5 -60 -7 -67
-6 -62 8 8 20 6 20 -69 0 -47 -12 -70 -13 -101 -5 -45 12 -149 9 -301 -7 -68
-7 -105 -7 -118 0 -26 13 -89 4 -221 -34 -104 -31 -110 -31 -138 -15 -16 9
-59 19 -96 22 -37 4 -85 12 -107 20 -65 21 -93 26 -100 15 -10 -16 -25 -12
-19 5 4 8 5 15 3 15 -2 1 -48 5 -102 9 -104 8 -129 19 -107 46 19 23 8 27 -41
16 -24 -5 -73 -12 -109 -16 -69 -7 -155 -29 -180 -45 -13 -8 -12 -10 3 -10 29
0 19 -19 -10 -19 -16 -1 -44 -1 -63 -2 l-35 0 29 -9 c16 -5 49 -6 73 -3 l43 6
0 -39 c0 -33 5 -43 33 -61 31 -22 34 -22 136 -9 99 13 131 12 131 -3 0 -4 -14
-12 -31 -18 -30 -12 -30 -13 -15 -35 9 -12 16 -35 16 -51 0 -33 -2 -33 90 2
30 12 65 21 77 21 12 0 24 4 27 9 3 5 21 12 40 15 19 4 36 12 39 19 3 9 44 13
147 14 78 1 153 4 166 7 14 4 24 2 24 -4 0 -10 89 -8 193 6 52 6 38 -12 -15
-20 -24 -4 -54 -14 -68 -23 -13 -9 -33 -17 -45 -19 -30 -3 -135 -53 -135 -64
0 -6 -9 -10 -21 -10 -25 0 -130 -29 -144 -40 -5 -4 -24 -11 -41 -14 -17 -4
-40 -15 -50 -24 -11 -9 -31 -23 -46 -29 -16 -7 -28 -17 -28 -23 0 -6 -10 -8
-25 -4 -28 7 -34 -10 -8 -24 14 -9 14 -11 -6 -21 -12 -7 -31 -9 -41 -6 -16 5
-20 2 -20 -14 0 -23 10 -27 27 -10 14 14 53 2 53 -16 0 -11 8 -13 33 -8 17 3
37 9 42 13 6 4 30 10 53 14 24 4 61 15 83 26 21 11 51 20 66 19 l28 0 -32 -16
c-18 -9 -33 -20 -33 -25 0 -4 -6 -8 -13 -8 -8 0 -24 -9 -37 -20 -12 -11 -27
-17 -32 -14 -9 6 -38 -13 -38 -25 0 -3 16 -7 36 -8 45 -2 72 -23 31 -23 -31 0
-37 -25 -8 -35 10 -3 26 -14 36 -25 18 -20 17 -20 -24 -20 -30 0 -43 -5 -48
-17 -4 -9 -1 -19 5 -21 24 -8 11 -17 -25 -18 -40 -1 -87 31 -79 53 8 19 -13
27 -39 13 -19 -10 -27 -9 -49 5 -24 16 -28 16 -51 1 -13 -9 -33 -16 -44 -16
-10 0 -21 -7 -25 -15 -3 -8 -14 -15 -24 -15 -23 0 -46 -25 -37 -40 3 -5 1 -10
-4 -10 -6 0 -11 7 -11 16 0 12 -6 15 -22 10 -13 -3 -31 -6 -40 -6 -32 0 -19
-19 15 -22 l32 -3 -29 -19 -29 -20 -18 22 c-10 13 -20 18 -24 12 -3 -5 -13
-10 -21 -10 -8 0 -34 -9 -57 -19 -24 -11 -62 -26 -85 -33 -23 -7 -42 -16 -42
-20 0 -5 -9 -8 -20 -8 -41 0 -17 19 95 74 67 33 115 63 115 72 0 8 -7 14 -15
14 -8 0 -15 5 -15 10 0 11 -81 9 -110 -3 -21 -8 -144 -37 -158 -37 -6 0 -9 6
-6 14 5 12 -22 36 -40 36 -12 0 -6 -49 7 -53 9 -4 9 -6 0 -6 -9 -1 -13 -24
-13 -80 l0 -78 43 8 c59 11 59 11 45 -11 -7 -11 -18 -20 -25 -20 -7 0 -13 -4
-13 -8 0 -5 -11 -14 -25 -20 -21 -10 -25 -19 -25 -52 l0 -40 40 0 c22 0 40 -4
40 -9 0 -4 19 -13 43 -18 24 -6 33 -11 20 -12 -28 -1 -30 -17 -3 -33 11 -7 20
-21 20 -30 0 -10 7 -18 18 -18 9 0 26 -15 37 -33 l19 -32 4 33 c3 30 6 32 43
32 28 0 39 -4 39 -15 0 -9 -9 -15 -21 -15 -15 0 -19 -4 -15 -16 3 -9 6 -20 6
-25 0 -5 7 -9 15 -9 9 0 15 -9 15 -25 0 -18 7 -26 25 -31 14 -3 25 -10 25 -15
0 -5 6 -9 14 -9 8 0 16 -6 19 -12 4 -10 7 -10 18 -1 15 15 59 18 59 5 0 -5 18
-17 40 -27 22 -10 40 -24 40 -32 0 -9 17 -13 63 -14 52 0 58 -2 40 -11 -13 -6
-23 -15 -23 -19 0 -13 74 -31 78 -19 8 22 33 8 46 -25 14 -33 18 -35 59 -35
69 0 106 -10 112 -31 4 -12 16 -19 30 -19 13 0 27 -5 30 -10 4 -6 15 -8 26 -5
16 5 19 1 19 -25 0 -26 -3 -30 -19 -25 -11 3 -22 1 -26 -5 -4 -6 4 -10 19 -10
16 0 26 -6 26 -15 0 -21 48 -65 71 -65 11 0 37 -9 59 -20 64 -33 131 -52 157
-45 15 3 29 0 39 -10 9 -8 11 -15 5 -15 -22 0 -11 -39 11 -42 13 -2 22 -9 21
-16 -2 -6 1 -12 6 -12 4 0 24 -13 42 -30 19 -16 42 -30 52 -30 9 0 17 -4 17
-10 0 -5 9 -10 19 -10 11 0 23 5 26 10 12 19 69 9 154 -27 18 -7 36 -12 39 -9
2 3 14 -1 26 -9 11 -8 28 -15 38 -15 10 0 18 -6 18 -12 0 -22 76 -58 122 -58
26 0 57 -8 77 -21 25 -15 36 -17 41 -9 5 9 9 9 14 1 4 -6 20 -11 37 -11 19 0
29 -5 29 -15 0 -11 7 -14 22 -10 18 4 28 -1 43 -25 19 -28 55 -42 55 -20 0 6
9 10 20 10 11 0 20 -4 20 -10 0 -5 9 -10 20 -10 25 0 60 -34 60 -58 0 -13 13
-23 40 -32 22 -7 40 -17 40 -22 0 -4 9 -8 21 -8 12 0 23 -8 26 -19 3 -14 17
-20 56 -24 28 -4 53 -10 56 -15 7 -10 110 -26 159 -24 27 0 37 -5 50 -28 12
-20 22 -28 34 -24 21 6 58 -12 58 -29 0 -7 21 -35 46 -62 43 -47 44 -50 23
-53 -13 -2 -30 -13 -37 -24 -15 -21 -56 -21 -133 0 -32 8 -41 6 -65 -14 -16
-13 -35 -23 -41 -24 -7 0 -13 -11 -13 -24 0 -15 -7 -27 -19 -31 -10 -3 -26
-14 -36 -25 -18 -20 -17 -20 23 -20 31 0 48 7 72 29 19 17 39 27 50 24 10 -3
28 1 40 7 18 10 20 14 9 21 -11 7 -10 9 4 9 12 0 17 -8 17 -31 0 -19 -7 -37
-17 -45 -16 -12 -10 -13 40 -14 48 0 57 3 57 18 1 16 1 16 14 -1 15 -19 56
-23 56 -5 0 6 3 8 7 5 3 -4 11 0 17 8 6 9 41 21 79 27 37 6 67 14 67 19 0 4
18 0 40 -9 34 -14 40 -21 37 -40 -3 -16 1 -22 15 -22 11 0 26 7 34 15 9 8 20
15 25 15 5 0 9 -7 9 -15 0 -18 31 -20 48 -3 10 10 17 10 32 0 15 -9 174 -12
667 -12 637 0 648 0 661 20 7 11 21 20 32 20 13 0 20 7 20 20 0 11 -4 20 -10
20 -5 0 -10 4 -10 9 0 5 21 11 48 14 89 10 112 18 112 38 0 11 5 19 10 19 6 0
10 6 10 14 0 8 11 17 25 20 14 4 35 16 46 27 11 11 24 17 29 14 6 -4 15 6 21
22 6 18 13 23 18 15 5 -8 17 -9 44 -1 43 11 46 21 15 37 -19 10 -12 12 47 11
94 -2 95 -1 95 17 0 9 9 18 20 21 11 3 20 9 20 14 0 6 17 26 38 47 34 34 37
35 40 16 3 -21 5 -20 40 12 29 27 38 31 40 18 2 -10 15 7 29 40 14 31 32 56
39 56 8 0 13 3 11 8 -1 4 8 18 21 32 12 13 22 27 22 32 0 4 9 8 20 8 11 0 20
7 20 15 0 8 4 15 8 15 5 0 15 11 22 25 7 14 22 25 32 25 10 0 18 4 18 10 0 5
18 14 40 20 49 13 51 25 5 41 -19 7 -35 17 -35 21 0 11 18 10 25 -2 10 -16 45
-12 45 5 0 11 11 15 38 15 38 0 72 23 72 48 0 6 16 23 35 38 19 14 35 34 35
44 0 11 13 24 30 32 17 7 30 18 30 25 0 6 12 25 28 42 20 22 33 29 49 25 15
-4 24 0 32 14 6 11 8 22 5 25 -13 13 9 46 39 58 18 6 46 28 64 47 17 19 36 31
41 28 5 -3 21 10 36 29 18 22 33 32 43 28 22 -9 45 24 33 47 -8 15 -3 21 29
33 37 15 38 17 45 79 3 34 13 69 21 77 13 14 15 13 15 -7 0 -15 6 -22 20 -22
11 0 20 7 20 15 0 9 11 20 24 25 28 10 42 29 30 39 -17 12 -53 91 -44 96 5 3
11 1 15 -5 3 -5 15 -10 26 -10 11 0 27 -7 35 -15 11 -11 27 -13 62 -8 26 3 49
10 50 15 2 4 12 8 23 8 11 0 19 7 19 16 0 9 9 18 20 21 11 3 20 14 20 24 0 11
7 19 15 19 18 0 19 12 3 28 -17 17 -5 24 43 26 24 1 45 8 47 14 2 7 12 12 22
12 10 0 21 4 24 9 3 5 14 7 24 4 23 -6 46 21 39 46 -3 12 4 23 24 35 16 10 29
20 29 24 0 10 -38 42 -50 42 -10 0 -50 20 -60 30 -16 16 -169 92 -212 105 -38
12 -88 55 -88 76 0 10 -6 19 -12 20 -7 0 -3 5 10 11 12 6 22 15 22 20 0 4 9 8
19 8 10 0 21 7 25 15 3 8 16 15 30 15 14 0 31 7 40 15 8 8 32 15 53 15 l38 1
-40 14 c-22 8 -41 15 -42 15 -2 0 -3 7 -3 15 0 8 -6 15 -12 16 -7 0 -3 5 10
11 24 12 29 33 10 42 -9 3 -7 9 6 20 18 15 18 16 2 16 -28 0 -9 17 40 36 34
13 48 14 57 5 9 -9 5 -18 -17 -38 -27 -25 -28 -27 -10 -40 10 -7 30 -13 46
-13 15 0 28 -4 28 -9 0 -5 11 -12 24 -15 13 -3 32 -9 43 -12 10 -3 -8 8 -40
25 -31 17 -66 31 -77 31 -11 0 -20 4 -20 9 0 13 25 20 49 14 15 -4 21 -1 21
11 0 9 8 16 20 16 17 0 19 3 11 18 -7 13 -7 22 1 30 8 8 1 17 -26 32 -20 12
-36 25 -36 29 0 14 41 41 63 41 18 0 19 -2 7 -10 -11 -7 -12 -10 -2 -10 8 0
28 -6 45 -14 18 -8 50 -17 72 -20 22 -3 57 -8 78 -12 45 -8 52 11 7 21 -16 4
-32 11 -35 16 -4 5 -15 9 -26 9 -10 0 -19 3 -19 8 0 4 -22 15 -50 25 -27 10
-50 23 -50 28 0 7 7 8 18 4 9 -4 55 -13 102 -21 74 -12 85 -12 93 1 4 8 18 15
30 15 28 1 -39 28 -101 41 -50 10 -78 24 -66 32 9 5 84 -7 139 -23 17 -5 69
-12 118 -16 l87 -7 0 29 c0 22 -8 34 -30 47 -16 10 -35 23 -42 30 -23 23 -132
76 -178 88 l-44 11 24 19 c25 18 25 19 3 19 -22 0 -48 32 -36 43 3 4 0 13 -7
22 -11 13 -8 15 19 15 20 0 30 -4 26 -10 -4 -7 15 -20 44 -32 28 -12 51 -26
51 -30 0 -4 -17 -8 -37 -9 -45 -1 -38 -4 40 -19 35 -7 68 -21 84 -36 14 -13
38 -24 54 -24 15 0 29 -5 31 -12 7 -20 146 -35 208 -22 105 23 126 47 151 169
7 33 16 68 22 79 6 13 5 21 -4 27 -11 7 -9 13 9 31 12 13 33 35 45 49 12 15
46 34 75 44 50 16 52 18 52 52 0 37 -21 62 -51 63 -30 0 -43 80 -14 80 8 0 15
-6 15 -14 0 -23 38 -30 56 -11 19 19 21 18 -34 35 -35 11 -45 11 -51 1 -7 -10
-12 -10 -30 0 -42 27 -23 37 65 33 34 -1 71 -7 82 -13 11 -6 25 -11 31 -11 19
0 12 18 -9 25 -29 9 -25 31 15 72 19 20 33 38 30 41 -3 3 -27 4 -55 3 -27 -1
-50 3 -50 8 0 5 -9 11 -20 14 -17 4 -20 12 -18 42 3 49 -31 78 -82 70 -19 -2
-54 -5 -77 -5 -32 0 -43 -4 -43 -15 0 -11 -11 -15 -40 -15 l-40 0 0 51 c0 33
-6 56 -16 66 -11 11 -12 18 -4 23 15 9 -26 80 -46 80 -10 0 -14 12 -14 40 0
29 -4 40 -15 40 -11 0 -15 11 -15 38 0 34 -15 68 -45 98 -6 6 -62 14 -124 17
-63 4 -117 11 -120 15 -8 12 -66 30 -116 35 -22 2 -102 1 -178 -4z m-3126
-1260 c30 -30 16 -34 -17 -5 -16 14 -23 26 -16 26 6 0 21 -9 33 -21z m-753
-31 c18 -18 15 -28 -8 -28 -13 0 -20 7 -20 20 0 23 10 26 28 8z m1192 -138
c11 -6 12 -12 4 -20 -13 -13 -44 -2 -44 16 0 16 18 18 40 4z m68 -17 c2 -8 -6
-13 -22 -13 -17 0 -26 5 -26 16 0 19 41 16 48 -3z m1792 -18 c0 -8 -7 -15 -15
-15 -9 0 -26 -7 -38 -15 -32 -20 -100 -21 -180 0 -83 21 -77 39 8 25 74 -11
162 -7 177 8 17 17 48 15 48 -3z m-4300 -22 c-1 -16 -30 -46 -37 -38 -5 4 -2
10 5 12 6 3 12 11 12 19 0 8 5 14 10 14 6 0 10 -3 10 -7z m480 -17 c0 -8 -4
-18 -10 -21 -5 -3 -10 3 -10 14 0 12 5 21 10 21 6 0 10 -6 10 -14z m3400 4
c11 -7 5 -10 -23 -10 -23 0 -36 4 -32 10 8 13 35 13 55 0z m40 -31 c0 -5 -4
-9 -10 -9 -5 0 -10 7 -10 16 0 8 5 12 10 9 6 -3 10 -10 10 -16z m-5440 -20 c0
-5 -4 -9 -10 -9 -5 0 -10 7 -10 16 0 8 5 12 10 9 6 -3 10 -10 10 -16z m1430
-9 c-20 -13 -33 -13 -25 0 3 6 14 10 23 10 15 0 15 -2 2 -10z m-1497 -7 c-7
-2 -19 -2 -25 0 -7 3 -2 5 12 5 14 0 19 -2 13 -5z m1127 -38 c-7 -8 -18 -15
-25 -15 -7 0 -18 7 -25 15 -11 13 -7 15 25 15 32 0 36 -2 25 -15z m200 -25 c0
-5 -9 -10 -21 -10 -11 0 -17 5 -14 10 3 6 13 10 21 10 8 0 14 -4 14 -10z
m3904 3 c6 -4 29 -9 51 -11 54 -5 58 -12 7 -12 -23 0 -42 -4 -42 -8 0 -12 -72
-1 -87 14 -7 7 -13 14 -13 17 0 7 72 7 84 0z m-5004 -13 c0 -13 -11 -13 -30 0
-12 8 -11 10 8 10 12 0 22 -4 22 -10z m1020 -30 c0 -24 -5 -29 -40 -38 l-39
-10 6 32 c12 58 73 72 73 16z m-293 24 c-3 -3 -12 -4 -19 -1 -8 3 -5 6 6 6 11
1 17 -2 13 -5z m460 -16 c-3 -8 -6 -5 -6 6 -1 11 2 17 5 13 3 -3 4 -12 1 -19z
m-37 -67 c0 -12 -25 -21 -58 -21 -25 0 -25 1 -6 15 21 16 64 20 64 6z m-550
-10 c0 -15 -19 -23 -38 -16 -14 5 -14 7 -2 15 19 12 40 13 40 1z m-371 -132
c-22 -13 -31 -11 -17 5 7 8 17 12 22 9 4 -3 2 -9 -5 -14z m44 -4 c0 -6 -7 -11
-16 -13 -12 -3 -15 1 -11 13 7 17 25 17 27 0z m-23 -45 c-19 -13 -30 -13 -30
0 0 6 10 10 23 10 18 0 19 -2 7 -10z m253 -118 c-13 -2 -23 -7 -23 -12 0 -9
-83 -70 -94 -70 -3 0 -6 16 -6 35 0 29 4 35 23 36 12 0 38 6 57 13 19 7 42 10
50 7 11 -4 9 -7 -7 -9z m-318 -161 c0 -15 -126 -73 -182 -84 -26 -5 -31 -3
-26 8 3 8 13 15 22 15 9 0 22 9 29 20 7 11 21 20 31 20 11 0 23 5 26 10 3 6
17 10 31 10 13 0 24 5 24 11 0 6 10 9 23 7 12 -2 22 -9 22 -17z m87 -101 c15
0 28 -5 28 -11 0 -7 -9 -9 -27 -4 -16 5 -35 8 -44 9 -10 0 -15 6 -12 14 4 9 9
10 16 3 6 -6 24 -11 39 -11z m-752 -160 c0 -5 -4 -10 -10 -10 -5 0 -10 5 -10
10 0 6 5 10 10 10 6 0 10 -4 10 -10z m300 -125 c0 -8 -7 -15 -15 -15 -8 0 -15
7 -15 15 0 8 7 15 15 15 8 0 15 -7 15 -15z m67 -11 c-3 -3 -12 -4 -19 -1 -8 3
-5 6 6 6 11 1 17 -2 13 -5z m681 -321 c-10 -2 -26 -2 -35 0 -10 3 -2 5 17 5
19 0 27 -2 18 -5z m82 -253 c-19 -13 -30 -13 -30 0 0 6 10 10 23 10 18 0 19
-2 7 -10z m4450 -295 c0 -8 -4 -15 -10 -15 -5 0 -7 7 -4 15 4 8 8 15 10 15 2
0 4 -7 4 -15z m-3145 -245 c3 -5 -1 -10 -10 -10 -9 0 -13 5 -10 10 3 6 8 10
10 10 2 0 7 -4 10 -10z m55 -6 c0 -2 -7 -4 -15 -4 -8 0 -15 4 -15 10 0 5 7 7
15 4 8 -4 15 -8 15 -10z m2770 -74 c0 -5 -7 -10 -16 -10 -8 0 -12 5 -9 10 3 6
10 10 16 10 5 0 9 -4 9 -10z m-80 -55 c0 -9 -6 -12 -15 -9 -8 4 -12 10 -9 15
8 14 24 10 24 -6z m-2375 -25 c3 -5 -1 -10 -9 -10 -9 0 -16 5 -16 10 0 6 4 10
9 10 6 0 13 -4 16 -10z m128 -87 c-7 -2 -19 -2 -25 0 -7 3 -2 5 12 5 14 0 19
-2 13 -5z"/>
<path d="M7520 4175 c0 -8 9 -15 20 -15 11 0 20 2 20 5 0 2 -9 9 -20 15 -16 9
-20 8 -20 -5z"/>
<path d="M0 4130 c0 -22 7 -25 29 -11 11 7 9 11 -8 20 -18 10 -21 9 -21 -9z"/>
<path d="M0 4022 c0 -6 6 -13 13 -15 10 -4 10 -6 0 -6 -10 -1 -13 -75 -13
-336 l0 -335 33 0 c17 0 68 6 112 14 44 8 116 17 160 21 82 7 396 52 428 61
24 7 21 20 -5 28 -36 9 -126 7 -133 -4 -6 -10 -146 -7 -164 4 -5 4 -8 13 -4
21 3 10 -1 15 -13 15 -17 1 -17 2 3 19 25 21 21 31 -16 31 -24 1 -23 2 12 21
45 24 49 44 7 36 -33 -7 -60 0 -60 15 0 6 12 8 29 5 17 -4 36 0 47 8 18 13 16
14 -18 15 -21 0 -38 4 -38 9 0 5 17 15 38 22 24 9 31 14 20 17 -26 5 -22 19 8
26 l27 7 -21 20 c-12 10 -26 19 -31 19 -5 0 -22 5 -37 10 l-27 11 29 29 c16
16 44 32 62 36 53 10 52 28 -2 20 -30 -5 -46 -4 -46 3 0 6 -8 11 -19 11 -10 0
-30 9 -44 20 -14 11 -31 20 -39 21 -7 0 16 7 51 14 65 15 79 21 68 31 -9 9
-141 9 -244 0 l-93 -8 0 31 c0 26 -4 31 -24 31 -13 0 -31 3 -40 6 -9 3 -16 2
-16 -4z m50 -32 c0 -5 -4 -10 -10 -10 -5 0 -10 5 -10 10 0 6 5 10 10 10 6 0
10 -4 10 -10z m137 -106 c-3 -3 -12 -4 -19 -1 -8 3 -5 6 6 6 11 1 17 -2 13 -5z
m46 -11 c-7 -2 -19 -2 -25 0 -7 3 -2 5 12 5 14 0 19 -2 13 -5z m294 -449 c-3
-3 -12 -4 -19 -1 -8 3 -5 6 6 6 11 1 17 -2 13 -5z"/>
<path d="M7892 3925 c-29 -13 -24 -37 8 -45 48 -12 67 11 33 40 -14 11 -24 12
-41 5z"/>
<path d="M6505 3500 c-4 -6 7 -10 24 -10 17 0 31 5 31 10 0 6 -11 10 -24 10
-14 0 -28 -4 -31 -10z"/>
<path d="M465 3490 c-17 -7 -16 -9 10 -9 17 0 37 4 45 9 12 8 10 10 -10 9 -14
0 -34 -4 -45 -9z"/>
<path d="M320 3349 c-36 -5 -103 -15 -150 -24 -47 -9 -104 -15 -127 -15 l-43
1 0 -51 c0 -46 2 -50 23 -50 13 0 46 6 73 14 27 7 72 18 99 24 115 25 193 44
235 59 25 9 83 24 130 33 l85 18 -130 0 c-72 -1 -159 -5 -195 -9z"/>
<path d="M553 3270 c-2 -3 -50 -15 -106 -26 -156 -33 -207 -48 -204 -59 5 -13
142 -7 223 10 69 14 92 25 130 60 l26 24 -32 -2 c-17 -1 -34 -4 -37 -7z"/>
<path d="M8128 3273 c6 -2 18 -2 25 0 6 3 1 5 -13 5 -14 0 -19 -2 -12 -5z"/>
<path d="M6340 3245 c27 -10 30 -14 13 -14 -29 -1 -40 -21 -12 -21 12 0 20 -3
16 -6 -3 -3 -29 -1 -57 6 -53 13 -105 7 -95 -11 4 -6 -4 -8 -22 -4 -15 3 -22
2 -15 -1 14 -7 16 -24 3 -24 -5 0 -17 7 -26 17 -14 14 -18 14 -26 2 -15 -24
-11 -26 49 -33 31 -3 74 -9 95 -12 45 -7 124 12 151 38 11 10 32 18 48 18 17
0 28 5 28 14 0 17 -22 26 -61 26 -16 0 -29 5 -29 10 0 6 -21 10 -47 9 l-48 -1
35 -13z"/>
<path d="M6070 3190 c-8 -5 -27 -10 -42 -10 -15 0 -30 -5 -33 -11 -4 -6 -21
-10 -39 -9 -53 3 -66 0 -66 -14 0 -17 26 -24 118 -33 39 -3 72 -10 72 -14 0
-5 9 -9 20 -9 11 0 20 5 20 10 0 6 -9 10 -20 10 -11 0 -20 4 -20 10 0 5 -11
12 -25 16 -37 9 -30 24 11 24 29 0 34 3 25 13 -6 8 -8 17 -4 20 9 10 0 8 -17
-3z"/>
<path d="M168 3183 c-16 -2 -28 -9 -28 -15 0 -12 49 -2 65 13 5 6 5 8 0 8 -6
-1 -22 -4 -37 -6z"/>
<path d="M52 3160 c-53 -12 -51 -22 3 -15 57 9 96 25 55 24 -14 -1 -40 -5 -58
-9z"/>
<path d="M399 3160 c-35 -9 -159 -25 -314 -40 -44 -5 -81 -9 -82 -9 -2 -1 -3
-35 -3 -77 l0 -76 33 6 c17 4 66 11 107 16 111 13 298 39 359 50 67 12 128 13
116 2 -12 -10 -77 -24 -240 -52 -66 -11 -142 -27 -170 -35 -27 -8 -70 -19 -95
-26 -25 -6 -53 -15 -62 -20 -10 -5 -26 -9 -35 -9 -14 0 -15 -2 -4 -9 9 -6 10
-11 2 -15 -6 -4 -11 -29 -11 -56 l0 -49 33 5 c17 3 45 10 61 15 16 5 42 9 57
9 15 0 30 4 34 9 3 5 20 13 38 16 45 10 235 73 277 92 19 9 43 27 53 40 10 12
23 23 29 23 5 0 21 9 35 20 14 11 34 20 44 20 12 0 19 7 19 20 0 22 -54 50
-96 50 -13 0 -24 4 -24 9 0 5 -13 11 -29 14 -20 4 -33 16 -42 37 -15 32 -26
35 -90 20z"/>
<path d="M5659 3159 c-11 -7 -11 -9 4 -9 9 0 17 -7 17 -15 0 -10 -10 -15 -29
-15 -29 0 -57 -21 -44 -33 3 -4 22 -7 41 -7 20 0 64 -5 99 -11 66 -12 113 -6
113 12 0 6 -6 9 -14 6 -15 -6 -55 18 -45 27 3 3 31 -2 62 -13 53 -17 57 -17
57 -1 0 14 -12 18 -56 23 -31 3 -61 10 -67 16 -6 6 -29 8 -52 4 -30 -4 -46 -1
-57 10 -10 10 -20 12 -29 6z m121 -33 c0 -3 -4 -8 -10 -11 -5 -3 -10 -1 -10 4
0 6 5 11 10 11 6 0 10 -2 10 -4z"/>
<path d="M5345 3120 c3 -5 13 -10 21 -10 8 0 14 5 14 10 0 6 -9 10 -21 10 -11
0 -17 -4 -14 -10z"/>
<path d="M5425 3090 c28 -12 47 -12 40 0 -3 6 -18 10 -33 9 -24 0 -25 -1 -7
-9z"/>
<path d="M5938 3083 c7 -3 16 -2 19 1 4 3 -2 6 -13 5 -11 0 -14 -3 -6 -6z"/>
<path d="M5495 3070 c3 -5 16 -10 28 -10 12 -1 33 -7 46 -14 35 -20 57 -10 35
15 -12 14 -31 19 -66 19 -30 0 -47 -4 -43 -10z"/>
<path d="M826 3055 c-8 -8 -20 -13 -28 -12 -7 2 -10 2 -5 0 16 -10 6 -23 -18
-23 -32 0 -32 -15 1 -36 16 -11 21 -20 14 -24 -21 -13 14 -18 61 -10 24 5 47
6 51 4 17 -10 58 9 58 27 0 12 7 19 19 19 10 0 24 7 31 15 7 8 24 15 39 16 25
0 26 0 3 9 -12 5 -32 6 -45 1 -33 -13 -127 -1 -127 15 0 19 -35 18 -54 -1z"/>
<path d="M1443 3033 c9 -2 23 -2 30 0 6 3 -1 5 -18 5 -16 0 -22 -2 -12 -5z"/>
<path d="M1621 3033 c0 -5 4 -17 8 -28 7 -17 8 -17 13 8 4 19 1 27 -8 27 -8 0
-14 -3 -13 -7z"/>
<path d="M1833 3025 c-19 -20 -17 -23 23 -34 49 -14 94 7 94 44 0 1 -24 3 -52
3 -34 1 -58 -4 -65 -13z"/>
<path d="M1093 3017 c-29 -5 -54 -16 -58 -25 -4 -11 0 -13 22 -8 16 3 44 9 63
12 68 11 81 15 75 24 -7 12 -31 11 -102 -3z"/>
<path d="M450 2570 c0 -5 7 -10 15 -10 8 0 15 5 15 10 0 6 -7 10 -15 10 -8 0
-15 -4 -15 -10z"/>
<path d="M957 2559 c7 -7 15 -10 18 -7 3 3 -2 9 -12 12 -14 6 -15 5 -6 -5z"/>
<path d="M1070 2560 c0 -12 8 -12 35 0 18 8 17 9 -7 9 -16 1 -28 -3 -28 -9z"/>
<path d="M875 2535 c-5 -2 -44 -13 -85 -26 -41 -12 -79 -29 -83 -36 -4 -7 -21
-13 -37 -13 -17 0 -30 -4 -30 -10 0 -13 7 -13 69 6 39 11 57 12 64 5 8 -8 2
-15 -21 -23 -32 -12 -43 -28 -20 -28 14 0 64 15 141 44 59 21 76 46 32 46 -14
0 -25 5 -25 10 0 6 11 8 25 4 19 -5 25 -2 25 10 0 15 -27 20 -55 11z m-75 -45
c0 -5 -5 -10 -11 -10 -5 0 -7 5 -4 10 3 6 8 10 11 10 2 0 4 -4 4 -10z m47 -6
c-3 -3 -12 -4 -19 -1 -8 3 -5 6 6 6 11 1 17 -2 13 -5z"/>
<path d="M973 2533 c-14 -5 -18 -33 -5 -33 10 1 42 26 42 34 0 7 -19 7 -37 -1z"/>
<path d="M7200 2530 c0 -13 40 -13 60 0 11 7 5 10 -22 10 -21 0 -38 -4 -38
-10z"/>
<path d="M7280 2520 c0 -5 7 -10 16 -10 8 0 12 5 9 10 -3 6 -10 10 -16 10 -5
0 -9 -4 -9 -10z"/>
<path d="M7235 2490 c4 -6 11 -8 16 -5 14 9 11 15 -7 15 -8 0 -12 -5 -9 -10z"/>
<path d="M7288 2483 c7 -3 16 -2 19 1 4 3 -2 6 -13 5 -11 0 -14 -3 -6 -6z"/>
<path d="M6950 2400 c11 -7 2 -9 -30 -5 -43 4 -43 4 -10 -5 19 -5 41 -7 48 -5
15 6 7 25 -11 25 -7 0 -6 -4 3 -10z"/>
<path d="M7000 2370 c8 -5 26 -10 40 -10 20 0 22 2 10 10 -8 5 -26 10 -40 10
-20 0 -22 -2 -10 -10z"/>
<path d="M560 2350 c0 -5 5 -10 10 -10 6 0 10 5 10 10 0 6 -4 10 -10 10 -5 0
-10 -4 -10 -10z"/>
<path d="M7490 2290 c0 -6 7 -10 15 -10 8 0 15 2 15 4 0 2 -7 6 -15 10 -8 3
-15 1 -15 -4z"/>
<path d="M7227 2173 c-9 -2 -15 -8 -12 -13 2 -4 -40 -7 -95 -6 -55 0 -100 -2
-100 -5 0 -4 -13 -9 -30 -11 -17 -3 -30 0 -30 6 0 6 -5 5 -12 -2 -14 -14 0
-26 77 -68 28 -15 54 -33 58 -41 4 -7 18 -13 30 -13 12 0 37 -9 55 -20 17 -11
32 -15 32 -10 0 6 5 10 11 10 6 0 24 13 40 30 16 16 46 32 65 36 36 7 56 30
37 43 -6 3 -13 15 -17 27 -3 11 -21 25 -39 32 -35 12 -40 13 -70 5z m73 -17
c0 -3 -4 -8 -10 -11 -5 -3 -10 -1 -10 4 0 6 5 11 10 11 6 0 10 -2 10 -4z"/>
</g>
</svg>
